<?xml version="1.0" encoding="utf-8"?>
<!-- Generator: Adobe Illustrator 18.1.0, SVG Export Plug-In . SVG Version: 6.00 Build 0)  -->
<!DOCTYPE svg PUBLIC "-//W3C//DTD SVG 1.1//EN" "http://www.w3.org/Graphics/SVG/1.1/DTD/svg11.dtd">
<svg version="1.1"
	 id="svg4672" sodipodi:docname="PublicInformationSymbol EmergencyExit.svg" inkscape:version="0.45.1" sodipodi:docbase="/home/alerante/Desktop" inkscape:output_extension="org.inkscape.output.svg.inkscape" sodipodi:version="0.32" xmlns:dc="http://purl.org/dc/elements/1.1/" xmlns:inkscape="http://www.inkscape.org/namespaces/inkscape" xmlns:sodipodi="http://sodipodi.sourceforge.net/DTD/sodipodi-0.dtd" xmlns:svg="http://www.w3.org/2000/svg" xmlns:rdf="http://www.w3.org/1999/02/22-rdf-syntax-ns#" xmlns:cc="http://web.resource.org/cc/"
	 xmlns="http://www.w3.org/2000/svg" xmlns:xlink="http://www.w3.org/1999/xlink" x="0px" y="0px" viewBox="229 -258 599.9 600"
	 enable-background="new 229 -258 599.9 600" xml:space="preserve">
<sodipodi:namedview  inkscape:pageopacity="0.0" inkscape:document-units="px" inkscape:window-y="48" inkscape:current-layer="layer1" inkscape:window-height="624" inkscape:window-x="5" inkscape:window-width="814" inkscape:pageshadow="2" id="base" guidetolerance="10" objecttolerance="10" inkscape:zoom="1" inkscape:cx="265.57143" inkscape:cy="323.42857" bordercolor="#666666" pagecolor="#ffffff" gridtolerance="10000" borderopacity="1.0">
	</sodipodi:namedview>
<g id="layer1" transform="translate(-310.97085,3.6021267)" inkscape:groupmode="layer" inkscape:label="Layer 1">
	<g id="g5653" transform="matrix(4.6848915,0,0,4.6848915,-1145.8937,-2197.6612)">
		<path id="path3495" fill="#269463" d="M471.9,510.8l-3.2-8.5c-1.4-3.5-4.6-5.9-8.6-5.9h-1.4v-73.2h-69.5v40.5h9.1l10.4-13
			c2.1-2.4,5.3-4,8.8-4h22.2c3.5,0,6.6,1.9,8.2,5l6.6,12.5c0.3,0.5,0.5,1.1,0.5,1.9c0,2.2-1.9,4.2-4.2,4.2c-1.8,0-3-0.8-3.8-2.2
			l-5.9-11.4h-9.6l7.4,18.4l2.2,23.5h19c3,0,5.4,1.9,6.6,4.5l2.1,5.4H436c-2.4,0-4.5-1.8-4.6-4.2l-2.2-20.6l-17.6,36.5
			c-1,2.1-3.2,3.5-5.8,3.5h-8.5l21.6-44.7l-6.7-16.8l-6.4,7.8c-1.6,2.1-4.3,3.5-7.2,3.5h-9.4v52.8l15,14.9h-44.3V413.3h128.1v128.1
			h-14.4l-14.9-14.9v-15.7H471.9"/>
		<path id="path3497" fill="#269463" d="M412,428l0.5,0l0.5,0l0.5,0.1l0.4,0.1l0.4,0.1l0.4,0.1l0.4,0.2l0.4,0.2l0.4,0.2l0.4,0.2
			l0.4,0.2l0.4,0.2l0.3,0.3l0.3,0.3l0.3,0.3l0.3,0.3l0.3,0.3l0.3,0.3l0.3,0.3l0.3,0.4l0.2,0.4l0.2,0.4l0.2,0.4l0.2,0.4l0.2,0.4
			l0.1,0.4l0.1,0.4l0.1,0.4l0.1,0.4l0.1,0.5l0,0.5l0,0.5c0,5-4.2,9-9.1,9c-5,0-9-4-9-9S407.1,428,412,428z"/>
		<path id="path3499" fill="#269463" d="M416,529.8l11.5,11.5h-13.9l-15-14.9h9C410.7,526.4,413.8,527.7,416,529.8z"/>
	</g>
</g>
</svg>
